<?xml version="1.0" encoding="utf-8"?>
<!-- Generator: Adobe Illustrator 18.1.1, SVG Export Plug-In . SVG Version: 6.00 Build 0)  -->
<!DOCTYPE svg PUBLIC "-//W3C//DTD SVG 1.1//EN" "http://www.w3.org/Graphics/SVG/1.1/DTD/svg11.dtd">
<svg version="1.1" id="Layer_1" xmlns="http://www.w3.org/2000/svg" xmlns:xlink="http://www.w3.org/1999/xlink" x="0px" y="0px"
	 viewBox="192 6 600 600" enable-background="new 192 6 600 600" xml:space="preserve">
<path d="M746,158.6c-18.3,8.1-38,13.6-58.7,16.1c21.1-12.6,37.3-32.7,44.9-56.5c-19.7,11.7-41.6,20.2-64.9,24.8
	c-18.6-19.9-45.2-32.3-74.6-32.3c-56.4,0-102.2,45.7-102.2,102.2c0,8,0.9,15.8,2.6,23.3c-84.9-4.3-160.2-44.9-210.6-106.8
	c-8.8,15.1-13.8,32.6-13.8,51.4c0,35.4,18,66.7,45.5,85c-16.7-0.5-32.5-5.1-46.3-12.8c0,0.4,0,0.9,0,1.3c0,49.5,35.2,90.8,82,100.2
	c-8.6,2.3-17.6,3.6-26.9,3.6c-6.6,0-13-0.6-19.2-1.8c13,40.6,50.7,70.1,95.4,71c-35,27.4-79,43.7-126.9,43.7
	c-8.2,0-16.4-0.5-24.4-1.4c45.2,29,98.9,45.9,156.6,45.9c187.9,0,290.7-155.7,290.7-290.7c0-4.4-0.1-8.8-0.3-13.2
	C715,197,732.3,179,746,158.6z"/>
</svg>
