<?xml version="1.0" encoding="utf-8"?>
<!-- Generator: Adobe Illustrator 18.0.0, SVG Export Plug-In . SVG Version: 6.00 Build 0)  -->
<!DOCTYPE svg PUBLIC "-//W3C//DTD SVG 1.1//EN" "http://www.w3.org/Graphics/SVG/1.1/DTD/svg11.dtd">
<svg version="1.1" id="Layer_1" xmlns="http://www.w3.org/2000/svg" xmlns:xlink="http://www.w3.org/1999/xlink" x="0px" y="0px"
	 viewBox="0 0 400 400" enable-background="new 0 0 400 400" xml:space="preserve">
<g>
	<g>
		<path d="M107.7,82.1C91.8,82.1,79,94.6,79,110c0,15.4,12.8,27.9,28.7,27.9c15.8,0,28.7-12.5,28.7-27.9
			C136.3,94.6,123.5,82.1,107.7,82.1z M82.7,313.5h49.5V158.9H82.7V313.5z M284.1,158.9c-36.6-9.9-60.7,1.6-73.4,21.9v-21.9h-47.5
			v154.5h49.3v-79.7c0,0-1.9-36.1,27.8-36.1c29.6,0,27.6,27.3,27.6,36.3v79.5h49.8v-83.8C317.7,229.7,320.7,168.8,284.1,158.9z"/>
	</g>
</g>
</svg>
