<?xml version="1.0" encoding="utf-8"?>
<!-- Generator: Adobe Illustrator 18.1.1, SVG Export Plug-In . SVG Version: 6.00 Build 0)  -->
<!DOCTYPE svg PUBLIC "-//W3C//DTD SVG 1.1//EN" "http://www.w3.org/Graphics/SVG/1.1/DTD/svg11.dtd">
<svg version="1.1" id="Layer_1" xmlns="http://www.w3.org/2000/svg" xmlns:xlink="http://www.w3.org/1999/xlink" x="0px" y="0px"
	 viewBox="96 6 600 600" enable-background="new 96 6 600 600" xml:space="preserve">
<g>
	<g>
		<path d="M230.1,82.6c-30.2,0-54.6,23.8-54.6,53.1s24.3,53.1,54.6,53.1c30,0,54.6-23.8,54.6-53.1
			C284.5,106.4,260.1,82.6,230.1,82.6z M182.6,522.6h94.1v-294h-94.1V522.6z M565.5,228.7c-69.6-18.8-115.4,3-139.6,41.6v-41.6
			h-90.3v293.8h93.7V370.9c0,0-3.6-68.6,52.9-68.6c56.3,0,52.5,51.9,52.5,69v151.2h94.7V363.1C629.4,363.3,635.1,247.5,565.5,228.7z
			"/>
	</g>
</g>
</svg>
