<?xml version="1.0" encoding="utf-8"?>
<!-- Generator: Adobe Illustrator 18.1.1, SVG Export Plug-In . SVG Version: 6.00 Build 0)  -->
<!DOCTYPE svg PUBLIC "-//W3C//DTD SVG 1.1//EN" "http://www.w3.org/Graphics/SVG/1.1/DTD/svg11.dtd">
<svg version="1.1" id="Layer_1" xmlns="http://www.w3.org/2000/svg" xmlns:xlink="http://www.w3.org/1999/xlink" x="0px" y="0px"
	 viewBox="96 6 600 600" enable-background="new 96 6 600 600" xml:space="preserve">
<path d="M396,69.2c-135.3,0-245,108.7-245,242.8c0,107.2,70.2,198.2,167.6,230.3c12.2,2.2,16.7-5.3,16.7-11.7c0-5.8-0.2-21-0.3-41.3
	c-68.2,14.7-82.5-32.5-82.5-32.5c-11.1-28-27.2-35.5-27.2-35.5c-22.2-15.1,1.7-14.8,1.7-14.8c24.6,1.7,37.5,25,37.5,25
	c21.9,37.1,57.3,26.4,71.3,20.2c2.2-15.7,8.6-26.4,15.6-32.4c-54.4-6.1-111.6-27-111.6-120c0-26.5,9.5-48.2,25.2-65.1
	c-2.5-6.1-10.9-30.8,2.4-64.2c0,0,20.6-6.5,67.4,24.9c19.5-5.4,40.5-8.1,61.3-8.2c20.8,0.1,41.8,2.8,61.3,8.2
	c46.8-31.4,67.3-24.9,67.3-24.9c13.4,33.4,5,58.1,2.4,64.2c15.7,17,25.2,38.6,25.2,65.1c0,93.3-57.3,113.8-111.9,119.8
	c8.8,7.5,16.6,22.3,16.6,45c0,32.4-0.3,58.6-0.3,66.6c0,6.5,4.4,14,16.8,11.7C570.9,510,641,419.1,641,311.9
	C641,177.8,531.3,69.2,396,69.2z"/>
</svg>
