<?xml version="1.0" encoding="utf-8"?>
<!-- Generator: Adobe Illustrator 18.0.0, SVG Export Plug-In . SVG Version: 6.00 Build 0)  -->
<!DOCTYPE svg PUBLIC "-//W3C//DTD SVG 1.1//EN" "http://www.w3.org/Graphics/SVG/1.1/DTD/svg11.dtd">
<svg version="1.1" id="Layer_1" xmlns="http://www.w3.org/2000/svg" xmlns:xlink="http://www.w3.org/1999/xlink" x="0px" y="0px"
	 viewBox="0 0 400 400" enable-background="new 0 0 400 400" xml:space="preserve">
<path d="M123.1,222.2l4.1-14.5c0,0,1.9-6.8-2.1-11.5c0,0-12.2-15.6-12.2-37.2c0-21.6,14.8-85.3,91.3-85.3c0,0,73.7-2.7,73.7,71.9
	c0,0,0.3,67.2-37.9,87.8c-38.2,20.5-54.2-17.5-46.7-36.6c7.4-19.1,15.7-47.8,14.6-59c-1.1-11.2-6-25.7-25-25.1
	c-19,0.5-36.6,21.9-35.2,47c0,0,1.4,16.9,6.3,27.1l-22,95.4c0,0-4.1,17.5-4.4,28.4c-0.3,10.9,1.9,41,1.9,41s0,5.2,1.9,5.5
	c1.9,0.3,6.3-4.1,9.6-9.3c3.3-5.2,20.3-25.4,28.6-59.6l10.2-39.6c0,0,17.1,22.4,44.8,21.9c27.8-0.5,63.6-12.9,82.6-54.9
	c19-42.1,15.2-68.8,15.2-68.8S318.2,38.4,200.3,42.9C81.9,47.4,77.5,152.8,77.5,152.8s-4.1,50.8,35.9,71.4
	C113.3,224.2,121.6,227.5,123.1,222.2z"/>
</svg>
